Coordinates
version=1
nRows=54
nColumns=12
inDegrees=yes

Units are S.I. units (second, meters, Newtons, ...)
Angles are in degrees

endheader
time	SC_y	SC_z	SC_x	AC_y	AC_z	AC_x	GH_y	GH_z	GH_yy	EL_x	PS_y
       0.0              -40.56         -3.733          54.65          55.38          -4.51         -12.68          30.66          62.72          64.95          113.1          66.27
   0.04949              -40.56         -3.729          54.65          55.37         -4.511         -12.68          30.65          62.71          64.94          113.1          66.27
   0.09899              -40.56         -3.725          54.66          55.37         -4.513         -12.68          30.63          62.71          64.93          113.0          66.27
    0.1485              -40.56          -3.72          54.66          55.36         -4.514         -12.69          30.61           62.7          64.92          113.0          66.26
     0.198              -40.56         -3.715          54.66          55.36         -4.516         -12.69          30.59          62.69           64.9          113.0          66.26
    0.2475              -40.56         -3.709          54.67          55.36         -4.518         -12.69          30.57          62.68          64.89          113.0          66.26
     0.297              -40.56         -3.703          54.67          55.35          -4.52         -12.69          30.55          62.67          64.88          113.0          66.26
    0.3465              -40.56         -3.697          54.67          55.35         -4.522         -12.69          30.52          62.67          64.86          113.0          66.26
    0.3959              -40.56          -3.69          54.68          55.34         -4.524         -12.69           30.5          62.66          64.85          113.0          66.26
    0.4454              -40.56         -3.683          54.68          55.33         -4.527         -12.69          30.47          62.65          64.83          113.0          66.26
    0.4949              -40.56         -3.675          54.69          55.33         -4.529         -12.69          30.44          62.63          64.81          112.9          66.25
    0.5444              -40.56         -3.667          54.69          55.32         -4.532         -12.69          30.41          62.62          64.79          112.9          66.25
    0.5939              -40.56         -3.658           54.7          55.31         -4.535         -12.69          30.37          62.61          64.77          112.9          66.25
    0.6434              -40.56         -3.648          54.71           55.3         -4.538         -12.69          30.34           62.6          64.75          112.9          66.25
    0.6929              -40.56         -3.638          54.71           55.3         -4.542         -12.69           30.3          62.58          64.72          112.9          66.24
    0.7424              -40.56         -3.626          54.72          55.29         -4.545         -12.69          30.25          62.56          64.69          112.9          66.24
    0.7919              -40.56         -3.614          54.73          55.28          -4.55         -12.69          30.21          62.55          64.67          112.8          66.24
    0.8414              -40.56         -3.601          54.74          55.26         -4.554          -12.7          30.15          62.53          64.63          112.8          66.23
    0.8909              -40.56         -3.586          54.75          55.25         -4.559          -12.7           30.1          62.51           64.6          112.8          66.23
    0.9404              -40.56          -3.57          54.76          55.24         -4.564          -12.7          30.04          62.48          64.56          112.7          66.23
    0.9899              -40.56         -3.552          54.77          55.22          -4.57          -12.7          29.97          62.46          64.52          112.7          66.22
     1.039              -40.56         -3.533          54.78          55.21         -4.577          -12.7           29.9          62.43          64.47          112.7          66.22
     1.089              -40.56         -3.511          54.79          55.19         -4.584          -12.7          29.81           62.4          64.42          112.6          66.21
     1.138              -40.56         -3.487          54.81          55.17         -4.592         -12.71          29.72          62.37          64.36          112.6          66.21
     1.188              -40.56         -3.461          54.83          55.15           -4.6         -12.71          29.62          62.33           64.3          112.5           66.2
     1.237              -40.56         -3.431          54.84          55.12          -4.61         -12.71          29.51          62.29          64.23          112.5          66.19
     1.287              -40.56         -3.398          54.87          55.09         -4.621         -12.71          29.38          62.24          64.15          112.4          66.18
     1.336              -40.56         -3.361          54.89          55.06         -4.634         -12.72          29.24          62.19          64.06          112.3          66.17
     1.386              -40.56         -3.319          54.92          55.03         -4.648         -12.72          29.08          62.12          63.96          112.2          66.16
     1.435              -40.57         -3.271          54.95          54.99         -4.663         -12.73           28.9          62.06          63.85          112.2          66.15
     1.485              -40.57         -3.217          54.98          54.94         -4.681         -12.73          28.69          61.98          63.72          112.0          66.14
     1.534              -40.57         -3.154          55.02          54.89         -4.702         -12.74          28.45          61.89          63.57          111.9          66.12
     1.584              -40.57         -3.082          55.07          54.83         -4.726         -12.74          28.17          61.79           63.4          111.8          66.11
     1.633              -40.57         -2.998          55.12          54.76         -4.754         -12.75          27.85          61.67           63.2          111.6          66.08
     1.683              -40.57           -2.9          55.18          54.67         -4.787         -12.76          27.48          61.53          62.96          111.4          66.06
     1.732              -40.57         -2.784          55.26          54.58         -4.825         -12.77          27.03          61.36          62.69          111.2          66.03
     1.782              -40.57         -2.646          55.34          54.46         -4.871         -12.78          26.51          61.16          62.36          110.9           66.0
     1.831              -40.57         -2.481          55.45          54.32         -4.925          -12.8          25.88          60.93          61.97          110.6          65.96
     1.881              -40.58         -2.282          55.58          54.15         -4.992         -12.82          25.11          60.64          61.49          110.2          65.91
      1.93              -40.58         -2.038          55.73          53.95         -5.073         -12.84          24.18          60.29          60.91          109.7          65.85
      1.98              -40.58         -1.737          55.92          53.69         -5.172         -12.87          23.03          59.86          60.19          109.1          65.77
     2.029              -40.59         -1.362          56.16          53.38         -5.297          -12.9           21.6          59.33           59.3          108.4          65.68
     2.079              -40.59        -0.8897          56.46          52.98         -5.454         -12.94          19.79          58.65          58.17          107.5          65.56
     2.128               -40.6         -0.289          56.84          52.47         -5.653          -13.0           17.5          57.79          56.74          106.3          65.41
     2.178              -40.61         0.4798          57.33          51.83         -5.908         -13.07          14.56          56.69          54.91          104.8          65.22
     2.227              -40.62          1.466          57.96          50.99         -6.236         -13.16          10.78          55.28          52.56          102.9          64.97
     2.277              -40.64          2.727          58.76          49.93         -6.654         -13.28          5.966          53.48          49.56          100.4          64.66
     2.326              -40.65          4.312          59.77           48.6          -7.18         -13.42       -0.09163          51.21          45.78          97.27          64.26
     2.376              -40.68          6.243           61.0          46.97         -7.821          -13.6         -7.474          48.45          41.18          93.48          63.78
     2.425               -40.7          8.481          62.42          45.08         -8.564          -13.8         -16.03          45.24          35.85          89.08          63.23
     2.475              -40.73          10.91          63.96          43.04         -9.368         -14.02          -25.3          41.78          30.07          84.32          62.62
     2.524              -40.76          13.33          65.51           41.0         -10.17         -14.25         -34.56          38.31           24.3          79.57          62.02
     2.574              -40.79          15.57          66.93          39.11         -10.92         -14.45         -43.12          35.11          18.97          75.17          61.46
     2.623              -40.81           17.5          68.16          37.49         -11.56         -14.63          -50.5          32.34          14.36          71.38          60.98
